<svg width="17" height="17" viewBox="0 0 17 17" fill="none" xmlns="http://www.w3.org/2000/svg">
<path d="M12.2136 7.24703V12.9983C12.2136 13.1625 12.1813 13.3251 12.1184 13.4767C12.0556 13.6284 11.9635 13.7663 11.8474 13.8824C11.7313 13.9985 11.5935 14.0906 11.4418 14.1534C11.2901 14.2162 11.1275 14.2486 10.9633 14.2486H3.4617C3.13011 14.2486 2.81209 14.1168 2.57762 13.8824C2.34315 13.6479 2.21143 13.3299 2.21143 12.9983V5.49665C2.21143 5.16506 2.34315 4.84704 2.57762 4.61257C2.81209 4.3781 3.13011 4.24638 3.4617 4.24638H8.69659" stroke="black" stroke-width="1.00189" stroke-linecap="round" stroke-linejoin="round"/>
<path d="M14.5929 1.91055C14.547 1.86012 14.4914 1.81952 14.4294 1.79121C14.3673 1.76289 14.3002 1.74744 14.2321 1.7458C14.1639 1.74415 14.0961 1.75635 14.0328 1.78164C13.9695 1.80694 13.9119 1.8448 13.8637 1.89296L13.4751 2.27959C13.4281 2.3267 13.4016 2.39059 13.4016 2.4572C13.4016 2.52381 13.4281 2.58769 13.4751 2.63481L13.8313 2.99034C13.8547 3.01379 13.8824 3.03241 13.913 3.04511C13.9435 3.05781 13.9763 3.06434 14.0094 3.06434C14.0425 3.06434 14.0752 3.05781 14.1058 3.04511C14.1364 3.03241 14.1641 3.01379 14.1875 2.99034L14.5662 2.61345C14.7578 2.42218 14.7757 2.11062 14.5929 1.91055Z" fill="black"/>
<path d="M12.693 3.05826L7.04971 8.69154C7.0155 8.72562 6.99063 8.76793 6.9775 8.8144L6.71647 9.59187C6.71021 9.61296 6.70977 9.63535 6.71518 9.65668C6.7206 9.67801 6.73167 9.69748 6.74723 9.71303C6.76278 9.72859 6.78225 9.73966 6.80358 9.74508C6.82491 9.75049 6.8473 9.75005 6.8684 9.7438L7.64524 9.48276C7.69171 9.46964 7.73402 9.44477 7.76809 9.41055L13.4014 3.76664C13.4535 3.71397 13.4827 3.64286 13.4827 3.56876C13.4827 3.49466 13.4535 3.42355 13.4014 3.37087L13.0903 3.05826C13.0376 3.00567 12.9661 2.97614 12.8917 2.97614C12.8172 2.97614 12.7457 3.00567 12.693 3.05826Z" fill="black"/>
</svg>
