<svg width="17" height="17" viewBox="0 0 17 17" fill="none" xmlns="http://www.w3.org/2000/svg">
<rect width="17" height="17" fill="#E5E5E5"/>
<rect x="-3.60052" y="-3.60358" width="24.4194" height="64.4415" rx="4.20794" stroke="#7B61FF" stroke-width="0.400757" stroke-dasharray="2 2"/>
<path d="M7.51804 2.60583C6.54691 2.60583 5.59759 2.89381 4.79012 3.43334C3.98265 3.97287 3.35331 4.73973 2.98167 5.63694C2.61004 6.53415 2.5128 7.52141 2.70226 8.47388C2.89172 9.42636 3.35936 10.3013 4.04606 10.988C4.73275 11.6746 5.60765 12.1423 6.56012 12.3317C7.5126 12.5212 8.49986 12.424 9.39707 12.0523C10.2943 11.6807 11.0611 11.0514 11.6007 10.2439C12.1402 9.43642 12.4282 8.4871 12.4282 7.51596C12.4281 6.21374 11.9107 4.96488 10.9899 4.04407C10.0691 3.12326 8.82026 2.60592 7.51804 2.60583V2.60583Z" stroke="black" stroke-width="1.00189" stroke-miterlimit="10"/>
<path d="M11.1809 11.1793L14.6115 14.6099" stroke="black" stroke-width="1.00189" stroke-miterlimit="10" stroke-linecap="round"/>
</svg>
