<svg width="17" height="17" viewBox="0 0 17 17" fill="none" xmlns="http://www.w3.org/2000/svg">
<path d="M7.91214 2.40112C4.73614 2.40112 2.16089 4.97637 2.16089 8.15237C2.16089 11.3284 4.73614 13.9036 7.91214 13.9036C11.0881 13.9036 13.6634 11.3284 13.6634 8.15237C13.6634 4.97637 11.0881 2.40112 7.91214 2.40112Z" stroke="black" stroke-width="1.00189" stroke-miterlimit="10"/>
<path d="M7.03638 7.27771H8.037V10.905" stroke="black" stroke-width="1.00189" stroke-linecap="round" stroke-linejoin="round"/>
<path d="M6.66064 11.0282H9.41327" stroke="black" stroke-width="1.00189" stroke-miterlimit="10" stroke-linecap="round"/>
<path d="M7.91461 4.46442C7.75342 4.46442 7.59585 4.51222 7.46182 4.60177C7.3278 4.69132 7.22333 4.81861 7.16165 4.96753C7.09996 5.11645 7.08382 5.28032 7.11527 5.43842C7.14672 5.59652 7.22434 5.74174 7.33832 5.85572C7.4523 5.9697 7.59752 6.04732 7.75561 6.07876C7.91371 6.11021 8.07758 6.09407 8.2265 6.03239C8.37542 5.9707 8.50271 5.86624 8.59227 5.73221C8.68182 5.59819 8.72962 5.44061 8.72962 5.27942C8.72962 5.06327 8.64375 4.85597 8.49091 4.70313C8.33807 4.55028 8.13077 4.46442 7.91461 4.46442Z" fill="black"/>
</svg>
