<svg width="17" height="17" viewBox="0 0 17 17" fill="none" xmlns="http://www.w3.org/2000/svg">
<path d="M8.16111 2.63324C7.07308 2.63324 6.00948 2.95588 5.10481 3.56036C4.20014 4.16484 3.49504 5.02401 3.07867 6.02922C2.6623 7.03443 2.55335 8.14054 2.76562 9.20767C2.97788 10.2748 3.50182 11.255 4.27118 12.0244C5.04054 12.7937 6.02076 13.3177 7.08788 13.5299C8.15501 13.7422 9.26112 13.6333 10.2663 13.2169C11.2715 12.8005 12.1307 12.0954 12.7352 11.1907C13.3397 10.2861 13.6623 9.22247 13.6623 8.13444C13.6623 6.67543 13.0827 5.27618 12.051 4.2445C11.0194 3.21283 9.62012 2.63324 8.16111 2.63324Z" stroke="black" stroke-width="1.00189" stroke-miterlimit="10"/>
<path d="M6.41064 6.45572C6.41064 6.45572 6.4369 5.90865 7.02243 5.43754C7.36974 5.15775 7.78614 5.07679 8.16128 5.07116C8.50296 5.06678 8.80807 5.12337 8.99064 5.21027C9.30325 5.35908 9.91191 5.72233 9.91191 6.4948C9.91191 7.30759 9.38047 7.67679 8.77493 8.08287C8.1694 8.48896 8.00497 8.92974 8.00497 9.38522" stroke="black" stroke-width="1.00189" stroke-miterlimit="10" stroke-linecap="round"/>
<path d="M7.97727 11.6418C8.32419 11.6418 8.60542 11.3606 8.60542 11.0136C8.60542 10.6667 8.32419 10.3855 7.97727 10.3855C7.63035 10.3855 7.34912 10.6667 7.34912 11.0136C7.34912 11.3606 7.63035 11.6418 7.97727 11.6418Z" fill="black"/>
</svg>
